<mxfile host="app.diagrams.net" modified="2023-05-26T07:06:34.931Z" agent="Mozilla/5.0 (Windows NT 10.0; Win64; x64) AppleWebKit/537.36 (KHTML, like Gecko) Chrome/113.0.0.0 Safari/537.36" etag="7NOgQclDMntEveaEANhq" version="21.3.4" type="device">
  <diagram name="CLI作業フロー" id="Mp-aMMedsoSOPvz132cQ">
    <mxGraphModel dx="1434" dy="707" grid="1" gridSize="10" guides="1" tooltips="1" connect="1" arrows="1" fold="1" page="1" pageScale="1" pageWidth="827" pageHeight="1169" math="0" shadow="0">
      <root>
        <mxCell id="0" />
        <mxCell id="1" parent="0" />
        <mxCell id="87Px8HUi0RlLkoZZstVn-1" value="" style="rounded=0;whiteSpace=wrap;html=1;fillColor=#f5f5f5;strokeColor=#666666;fontColor=#333333;fontSize=11;" vertex="1" parent="1">
          <mxGeometry x="100" y="30" width="530" height="570" as="geometry" />
        </mxCell>
        <mxCell id="87Px8HUi0RlLkoZZstVn-2" value="" style="shape=flexArrow;endArrow=classic;html=1;rounded=0;fillColor=#dae8fc;strokeColor=#6c8ebf;" edge="1" parent="1">
          <mxGeometry width="50" height="50" relative="1" as="geometry">
            <mxPoint x="130" y="60" as="sourcePoint" />
            <mxPoint x="130" y="560" as="targetPoint" />
          </mxGeometry>
        </mxCell>
        <mxCell id="87Px8HUi0RlLkoZZstVn-3" value="① 投入オペレーション名の登録" style="rounded=1;whiteSpace=wrap;html=1;align=left;fillColor=#CCE5FF;strokeColor=#7EA6E0;" vertex="1" parent="1">
          <mxGeometry x="120" y="60" width="200" height="20" as="geometry" />
        </mxCell>
        <mxCell id="87Px8HUi0RlLkoZZstVn-4" value="【凡例】" style="verticalLabelPosition=middle;verticalAlign=middle;html=1;shape=mxgraph.basic.rect;fillColor2=none;strokeWidth=1;size=20;indent=5;labelPosition=center;align=left;fillColor=none;" vertex="1" parent="1">
          <mxGeometry x="400" y="40" width="220" height="60" as="geometry" />
        </mxCell>
        <mxCell id="87Px8HUi0RlLkoZZstVn-5" value="必須タスク" style="rounded=1;whiteSpace=wrap;html=1;align=left;fillColor=#CCE5FF;strokeColor=#7EA6E0;" vertex="1" parent="1">
          <mxGeometry x="450" y="60" width="70" height="20" as="geometry" />
        </mxCell>
        <mxCell id="87Px8HUi0RlLkoZZstVn-6" value="任意タスク" style="rounded=1;whiteSpace=wrap;html=1;align=left;fillColor=#D5E8D4;strokeColor=#82b366;" vertex="1" parent="1">
          <mxGeometry x="530" y="60" width="74" height="20" as="geometry" />
        </mxCell>
        <mxCell id="87Px8HUi0RlLkoZZstVn-7" value="③ Workspaceの登録" style="rounded=1;whiteSpace=wrap;html=1;align=left;fillColor=#CCE5FF;strokeColor=#7EA6E0;" vertex="1" parent="1">
          <mxGeometry x="120" y="140" width="200" height="20" as="geometry" />
        </mxCell>
        <mxCell id="87Px8HUi0RlLkoZZstVn-8" value="④ Movementの登録" style="rounded=1;whiteSpace=wrap;html=1;align=left;fillColor=#CCE5FF;strokeColor=#7EA6E0;" vertex="1" parent="1">
          <mxGeometry x="120" y="180" width="200" height="20" as="geometry" />
        </mxCell>
        <mxCell id="87Px8HUi0RlLkoZZstVn-9" value="⑤ Module素材の登録" style="rounded=1;whiteSpace=wrap;html=1;align=left;fillColor=#CCE5FF;strokeColor=#7EA6E0;" vertex="1" parent="1">
          <mxGeometry x="120" y="220" width="200" height="20" as="geometry" />
        </mxCell>
        <mxCell id="87Px8HUi0RlLkoZZstVn-10" value="⑥ MovementにModule素材を指定" style="rounded=1;whiteSpace=wrap;html=1;align=left;fillColor=#CCE5FF;strokeColor=#7EA6E0;" vertex="1" parent="1">
          <mxGeometry x="120" y="260" width="200" height="20" as="geometry" />
        </mxCell>
        <mxCell id="87Px8HUi0RlLkoZZstVn-11" value="⑪ 作業実行" style="rounded=1;whiteSpace=wrap;html=1;align=left;fillColor=#CCE5FF;strokeColor=#7EA6E0;" vertex="1" parent="1">
          <mxGeometry x="120" y="460" width="200" height="20" as="geometry" />
        </mxCell>
        <mxCell id="87Px8HUi0RlLkoZZstVn-12" value="⑦ 最大繰返数の設定" style="rounded=1;whiteSpace=wrap;html=1;align=left;fillColor=#D5E8D4;strokeColor=#82b366;" vertex="1" parent="1">
          <mxGeometry x="187" y="304" width="203" height="20" as="geometry" />
        </mxCell>
        <mxCell id="87Px8HUi0RlLkoZZstVn-13" value="" style="shape=flexArrow;endArrow=classic;html=1;rounded=0;fillColor=#d5e8d4;strokeColor=#82b366;endWidth=7.5;endSize=5.091666666666667;" edge="1" parent="1">
          <mxGeometry width="50" height="50" relative="1" as="geometry">
            <mxPoint x="181" y="314" as="sourcePoint" />
            <mxPoint x="140" y="313.5" as="targetPoint" />
          </mxGeometry>
        </mxCell>
        <mxCell id="87Px8HUi0RlLkoZZstVn-14" value="⑧ パラメータシートの作成" style="rounded=1;whiteSpace=wrap;html=1;align=left;fillColor=#D5E8D4;strokeColor=#82b366;" vertex="1" parent="1">
          <mxGeometry x="187" y="344" width="203" height="20" as="geometry" />
        </mxCell>
        <mxCell id="87Px8HUi0RlLkoZZstVn-15" value="" style="shape=flexArrow;endArrow=classic;html=1;rounded=0;fillColor=#d5e8d4;strokeColor=#82b366;endWidth=7.5;endSize=5.091666666666667;" edge="1" parent="1">
          <mxGeometry width="50" height="50" relative="1" as="geometry">
            <mxPoint x="181" y="354" as="sourcePoint" />
            <mxPoint x="140" y="353.5" as="targetPoint" />
          </mxGeometry>
        </mxCell>
        <mxCell id="87Px8HUi0RlLkoZZstVn-16" value="⑨ パラメータシートにデータを登録" style="rounded=1;whiteSpace=wrap;html=1;align=left;fillColor=#D5E8D4;strokeColor=#82b366;" vertex="1" parent="1">
          <mxGeometry x="187" y="384" width="203" height="20" as="geometry" />
        </mxCell>
        <mxCell id="87Px8HUi0RlLkoZZstVn-17" value="" style="shape=flexArrow;endArrow=classic;html=1;rounded=0;fillColor=#d5e8d4;strokeColor=#82b366;endWidth=7.5;endSize=5.091666666666667;" edge="1" parent="1">
          <mxGeometry width="50" height="50" relative="1" as="geometry">
            <mxPoint x="181" y="394" as="sourcePoint" />
            <mxPoint x="140" y="393.5" as="targetPoint" />
          </mxGeometry>
        </mxCell>
        <mxCell id="87Px8HUi0RlLkoZZstVn-18" value="⑩ 代入値自動登録設定" style="rounded=1;whiteSpace=wrap;html=1;align=left;fillColor=#D5E8D4;strokeColor=#82b366;" vertex="1" parent="1">
          <mxGeometry x="187" y="424" width="203" height="20" as="geometry" />
        </mxCell>
        <mxCell id="87Px8HUi0RlLkoZZstVn-19" value="" style="shape=flexArrow;endArrow=classic;html=1;rounded=0;fillColor=#d5e8d4;strokeColor=#82b366;endWidth=7.5;endSize=5.091666666666667;" edge="1" parent="1">
          <mxGeometry width="50" height="50" relative="1" as="geometry">
            <mxPoint x="181" y="434" as="sourcePoint" />
            <mxPoint x="140" y="433.5" as="targetPoint" />
          </mxGeometry>
        </mxCell>
        <mxCell id="87Px8HUi0RlLkoZZstVn-20" value="⑫ 作業状態確認" style="rounded=1;whiteSpace=wrap;html=1;align=left;fillColor=#CCE5FF;strokeColor=#7EA6E0;" vertex="1" parent="1">
          <mxGeometry x="120" y="500" width="200" height="20" as="geometry" />
        </mxCell>
        <mxCell id="87Px8HUi0RlLkoZZstVn-21" value="⑬ 作業履歴確認" style="rounded=1;whiteSpace=wrap;html=1;align=left;fillColor=#CCE5FF;strokeColor=#7EA6E0;" vertex="1" parent="1">
          <mxGeometry x="120" y="560" width="200" height="20" as="geometry" />
        </mxCell>
        <mxCell id="87Px8HUi0RlLkoZZstVn-22" value="② インターフェース情報の設定" style="rounded=1;whiteSpace=wrap;html=1;align=left;fillColor=#D5E8D4;strokeColor=#82b366;" vertex="1" parent="1">
          <mxGeometry x="187" y="100" width="203" height="20" as="geometry" />
        </mxCell>
        <mxCell id="87Px8HUi0RlLkoZZstVn-23" value="" style="shape=flexArrow;endArrow=classic;html=1;rounded=0;fillColor=#d5e8d4;strokeColor=#82b366;endWidth=7.5;endSize=5.091666666666667;" edge="1" parent="1">
          <mxGeometry width="50" height="50" relative="1" as="geometry">
            <mxPoint x="181" y="110" as="sourcePoint" />
            <mxPoint x="140" y="109.5" as="targetPoint" />
          </mxGeometry>
        </mxCell>
      </root>
    </mxGraphModel>
  </diagram>
</mxfile>
